<?xml version="1.0" standalone="no"?><!DOCTYPE svg PUBLIC "-//W3C//DTD SVG 1.1//EN" "http://www.w3.org/Graphics/SVG/1.1/DTD/svg11.dtd"><svg t="1588316141832" class="icon" viewBox="0 0 1024 1024" version="1.1" xmlns="http://www.w3.org/2000/svg" p-id="1971" xmlns:xlink="http://www.w3.org/1999/xlink" width="16" height="16"><defs><style type="text/css"></style></defs><path d="M739.712 986.048H239.808a143.232 143.232 0 0 1-143.04-143.04V232.128a143.232 143.232 0 0 1 143.04-143.04h372.48a32 32 0 0 1 0 64h-372.48c-43.584 0-79.04 35.456-79.04 79.04v610.88c0 43.648 35.456 79.04 79.04 79.04h499.904c43.584 0 78.976-35.456 78.976-79.04v-487.04a32 32 0 0 1 64 0v487.04a143.168 143.168 0 0 1-142.976 143.04z" fill="#707070" p-id="1972"></path><path d="M487.424 521.28h-225.92a32 32 0 0 1 0-64h225.92a32 32 0 0 1 0 64zM716.032 731.392H261.504a32 32 0 0 1 0-64h454.592a32 32 0 1 1-0.064 64zM609.664 409.664a32 32 0 0 1-22.656-54.592L894.784 47.36a32 32 0 0 1 45.248 45.248L632.32 400.256a32 32 0 0 1-22.656 9.408z" fill="#707070" p-id="1973"></path></svg>