<?xml version="1.0" standalone="no"?><!DOCTYPE svg PUBLIC "-//W3C//DTD SVG 1.1//EN" "http://www.w3.org/Graphics/SVG/1.1/DTD/svg11.dtd"><svg t="1588315626559" class="icon" viewBox="0 0 1024 1024" version="1.1" xmlns="http://www.w3.org/2000/svg" p-id="1641" xmlns:xlink="http://www.w3.org/1999/xlink" width="16" height="16"><defs><style type="text/css"></style></defs><path d="M285.312 1022.08a58.688 58.688 0 0 1-47.36-24.96 52.096 52.096 0 0 1-6.528-48l103.872-327.68H229.568a58.56 58.56 0 0 1-48.96-24.064c-11.072-15.872-13.248-36.8-5.824-57.344L348.992 61.632C361.472 27.584 396.992 1.92 431.68 1.92h362.88c20.288 0 38.144 8.768 48.832 24 11.2 15.872 13.312 36.8 5.952 57.408a31.168 31.168 0 0 1-3.776 7.232l-182.208 265.408h83.584c20.224 0 38.08 8.768 48.768 24 11.2 15.872 13.376 36.736 6.016 57.344a33.024 33.024 0 0 1-5.696 9.856C718.912 538.432 333.76 994.176 320 1007.936a48.512 48.512 0 0 1-34.688 14.144z m-48.704-464.704h142.4a31.936 31.936 0 0 1 30.464 41.728l-104 327.936c77.12-90.176 280.896-330.944 429.568-506.944h-132.48a32 32 0 0 1-26.368-50.112l208.64-304H431.616c-7.104 0-19.136 8.256-22.528 17.6L236.608 557.376z" fill="#707070" p-id="1642"></path></svg>