<?xml version="1.0" standalone="no"?><!DOCTYPE svg PUBLIC "-//W3C//DTD SVG 1.1//EN" "http://www.w3.org/Graphics/SVG/1.1/DTD/svg11.dtd"><svg t="1588235837364" class="icon" viewBox="0 0 1331 1024" version="1.1" xmlns="http://www.w3.org/2000/svg" p-id="7073" width="166.375" height="128" xmlns:xlink="http://www.w3.org/1999/xlink"><defs><style type="text/css"></style></defs><path d="M529.91999997 138.23999998C349.86666697 138.23999998 202.23999997 257.70666698 202.23999997 415.06133298c0 88.746667 48.469333 161.621333 130.389333 219.136l-34.133333 99.157334 116.394667-58.709334a549.717333 549.717333 0 0 0 137.898666 19.114667s-47.957333-169.813333 91.477334-269.653333c127.488-90.624 211.797333-73.557333 211.797333-73.557334C828.41599997 216.74666698 688.98133297 138.23999998 529.91999997 138.23999998z m-107.349333 219.136c-24.234667 0-49.493333-16.042667-49.493334-40.277333s25.258667-40.277333 49.493334-40.277334a39.082667 39.082667 0 0 1 40.96 40.277334 39.594667 39.594667 0 0 1-40.96 40.277333z m228.352 0a44.032 44.032 0 0 1-47.274667-40.277333 43.349333 43.349333 0 0 1 47.616-40.277334 38.058667 38.058667 0 0 1 41.642667 40.448 38.4 38.4 0 0 1-41.642667 40.106667z" fill="#BBDCFF" p-id="7074"></path><path d="M809.64266697 552.10666698c0 15.018667-17.066667 30.037333-41.642667 30.037333a34.133333 34.133333 0 0 1-31.402667-30.037333 34.133333 34.133333 0 0 1 32.256-34.133334 37.546667 37.546667 0 0 1 40.789334 34.133334z m139.434666-34.133334a34.133333 34.133333 0 0 0-32.256 34.133334 32.768 32.768 0 0 0 32.256 30.037333 37.034667 37.034667 0 0 0 40.448-30.037333 36.864 36.864 0 0 0-40.448-33.450667z" fill="#FFD300" p-id="7075"></path><path d="M651.26399997 367.61599998a48.469333 48.469333 0 0 0 51.2-51.2 48.128 48.128 0 0 0-51.2-51.2 53.589333 53.589333 0 0 0-57.514667 51.2 54.101333 54.101333 0 0 0 57.514667 51.2z m0-80.725333a27.818667 27.818667 0 0 1 31.402667 30.208 28.330667 28.330667 0 0 1-31.402667 30.037333 34.133333 34.133333 0 0 1-37.034667-30.037333 34.133333 34.133333 0 0 1 37.034667-30.208z m-228.693333-20.48c-29.354667 0-59.733333 18.944-59.733334 51.2s31.061333 51.2 59.733334 51.2a50.176 50.176 0 0 0 51.2-51.2 48.981333 48.981333 0 0 0-51.2-51.2z m0 80.725333c-18.944 0-39.253333-12.117333-39.253334-30.037333s19.968-30.208 39.253334-30.208a29.013333 29.013333 0 0 1 31.402666 30.208 29.354667 29.354667 0 0 1-31.402666 30.037333z m228.352 85.333333c121.002667-86.528 202.410667-72.021333 203.093333-71.850666l15.189333 3.072-3.072-15.189334C838.99733297 216.57599998 703.65866697 127.99999998 529.91999997 127.99999998 340.47999997 127.99999998 191.99999997 254.12266698 191.99999997 415.06133298c0 85.333333 43.178667 161.109333 128.512 223.061334l-39.082667 116.565333 135.338667-68.266667a560.128 560.128 0 0 0 136.533333 18.432h13.482667l-3.584-12.970666c-1.706667-7.509333-44.202667-165.034667 88.064-259.413334z m-110.250667 250.88a555.349333 555.349333 0 0 1-122.197333-18.602666l-3.925334-1.024-97.621333 49.322666 27.136-82.773333-6.144-4.437333c-82.944-58.88-125.44-129.706667-125.44-210.773334C212.47999997 265.55733298 351.91466697 148.47999998 529.91999997 148.47999998c157.696 0 281.258667 75.946667 312.832 190.634667-30.549333-1.194667-104.618667 5.802667-203.776 76.629333-120.661333 86.528-106.154667 224.597333-98.304 267.605333z m605.525333-58.538666c0-134.314667-131.925333-247.808-288.085333-247.808S570.87999997 488.10666698 570.87999997 624.81066698s128.853333 247.978667 287.232 247.978666a328.021333 328.021333 0 0 0 75.434667-11.776l22.016-5.12 105.301333 59.904-27.306667-100.010666c72.704-55.296 112.64-122.88 112.64-190.976z m-130.389333 178.688l-6.144 4.096 18.773333 66.56-69.973333-39.765334h-3.754667l-26.453333 5.973334a305.834667 305.834667 0 0 1-70.656 11.264c-147.114667 0-266.752-102.4-266.752-227.498667s119.466667-227.328 266.752-227.328 268.117333 104.789333 268.117333 228.010667c0 85.333333-68.778667 148.48-109.909333 178.688zM767.99999997 508.41599998a44.202667 44.202667 0 0 0-42.496 43.690667 43.690667 43.690667 0 0 0 42.496 40.277333c28.672 0 51.2-18.090667 51.2-40.277333a47.274667 47.274667 0 0 0-51.2-43.690667z m0 63.488a23.552 23.552 0 0 1-22.016-19.797333 23.893333 23.893333 0 0 1 22.016-23.210667c17.066667 0 31.402667 10.069333 31.402667 23.210667 0 8.362667-11.605333 19.797333-31.402667 19.797333z m181.077333-63.488a43.690667 43.690667 0 0 0-41.813333 43.690667 43.008 43.008 0 0 0 42.496 40.277333c27.477333 0 51.2-18.432 51.2-40.277333a47.104 47.104 0 0 0-51.882667-43.690667z m0 63.488a21.504 21.504 0 1 1 0-43.008c17.066667 0 30.208 10.24 30.208 23.210667 0 8.021333-11.776 19.797333-30.208 19.797333z" fill="#3989FF" p-id="7076"></path></svg>