<?xml version="1.0" standalone="no"?><!DOCTYPE svg PUBLIC "-//W3C//DTD SVG 1.1//EN" "http://www.w3.org/Graphics/SVG/1.1/DTD/svg11.dtd"><svg t="1588315612420" class="icon" viewBox="0 0 1024 1024" version="1.1" xmlns="http://www.w3.org/2000/svg" p-id="1310" xmlns:xlink="http://www.w3.org/1999/xlink" width="16" height="16"><defs><style type="text/css"></style></defs><path d="M512 1002.112C263.488 1002.112 61.312 800 61.312 551.488a447.616 447.616 0 0 1 178.624-359.36 32.064 32.064 0 0 1 38.72 51.072 384 384 0 0 0-153.344 308.352A387.072 387.072 0 0 0 512 938.176a387.072 387.072 0 0 0 386.624-386.624 383.936 383.936 0 0 0-153.024-308.16 32 32 0 1 1 38.72-50.944 447.36 447.36 0 0 1 178.24 359.104c0.064 248.448-202.048 450.56-450.56 450.56z" fill="#707070" p-id="1311"></path><path d="M512 536.576a32 32 0 0 1-32-32V53.888a32 32 0 0 1 64 0v450.688a32 32 0 0 1-32 32z" fill="#707070" p-id="1312"></path></svg>